<?xml version="1.0" encoding="iso-8859-1"?>
<!-- Generator: Adobe Illustrator 19.1.0, SVG Export Plug-In . SVG Version: 6.00 Build 0)  -->
<svg xmlns="http://www.w3.org/2000/svg" xmlns:xlink="http://www.w3.org/1999/xlink" version="1.1" id="Capa_1" x="0px" y="0px" viewBox="0 0 483.715 483.715" style="enable-background:new 0 0 483.715 483.715;" xml:space="preserve" width="512px" height="512px">
<g>
	<g>
		<path d="M247.634,334.025c-46.8-1.9-86.3-35.2-95.9-81.2c-1.4-6.5-2.1-13.2-2.2-19.9l-0.2-15.5l-145.5-35.1l-2.4,22.6    c-2.8,26.3-1.5,52.8,3.9,78.7c25.9,123.5,140.3,209.2,266,199.3l22.6-1.8l-30.7-146.5L247.634,334.025z M39.834,232.025l21.8,5.3    l-20.2,20.2C40.434,249.025,39.834,240.525,39.834,232.025z M45.734,281.425l38.7-38.6l22.3,5.4l-54.6,54.6    C49.634,295.825,47.534,288.725,45.734,281.425z M70.034,340.725c-3.5-5.8-6.7-11.8-9.6-18l54.2-54.2c1.9,7.1,4.3,13.9,7.2,20.5    L70.034,340.725z M81.334,357.625l50.2-50.2c3.5,5.6,7.4,11,11.7,16l-49.5,49.4C89.434,368.025,85.234,362.925,81.334,357.625z     M107.734,387.125l49.3-49.3c4.9,4.4,10.1,8.4,15.6,12.1l-49.9,49.9C117.534,395.825,112.534,391.525,107.734,387.125z     M139.434,411.325l51.2-51.2c6.4,3.1,13.1,5.6,20,7.7l-53.4,53.4C151.034,418.225,145.134,414.925,139.434,411.325z     M176.634,429.925l54.3-54.3l4.8,22.9l-38.2,38.2C190.534,434.825,183.534,432.525,176.634,429.925z M221.034,441.525l19.7-19.7    l4.6,21.9C237.134,443.425,229.034,442.625,221.034,441.525z" fill="#888888"/>
		<path d="M478.734,184.225c-24.2-115.4-130.4-192.5-244.9-183.5l22.9,109c54.6,2.2,102.9,41.1,114.6,97s-16.8,110.9-66,134.9    l22.9,109.1C436.734,412.925,502.934,299.625,478.734,184.225z" fill="#888888"/>
		<path d="M198.134,122.025l-22.9-109c-65.8,22.9-116,73.7-139.9,135.8l108.3,26.1C155.534,152.325,174.434,133.625,198.134,122.025    z" fill="#888888"/>
	</g>
</g>
<g>
</g>
<g>
</g>
<g>
</g>
<g>
</g>
<g>
</g>
<g>
</g>
<g>
</g>
<g>
</g>
<g>
</g>
<g>
</g>
<g>
</g>
<g>
</g>
<g>
</g>
<g>
</g>
<g>
</g>
</svg>
